<svg width="116" height="46" viewBox="0 0 116 46" fill="none" xmlns="http://www.w3.org/2000/svg">
<path d="M43.0391 19.3907C43.0391 19.3907 43.6198 18.7058 44.7812 17.336C45.4062 18.1641 46.0938 18.5782 46.8438 18.5782C47.4844 18.5782 48.0104 18.3646 48.4219 17.9375C48.6823 17.6667 48.8125 17.2292 48.8125 16.625V11.7813H45.375V9.20316H51.5469V16.6016C51.5469 17.9558 51.1224 19.0469 50.2734 19.875C49.3984 20.7292 48.2812 21.1563 46.9219 21.1563C45.474 21.1563 44.1797 20.5677 43.0391 19.3907ZM54.6719 9.20316H57.4062V16.4063C57.4062 17.0782 57.5781 17.5729 57.9219 17.8907C58.4167 18.349 59.0573 18.5782 59.8438 18.5782C60.6562 18.5782 61.2943 18.349 61.7578 17.8907C62.1068 17.5469 62.2812 17.0521 62.2812 16.4063V9.20316H65.0156V16.4063C65.0156 17.8802 64.5312 19.0443 63.5625 19.8985C62.6094 20.737 61.3698 21.1563 59.8438 21.1563C58.3177 21.1563 57.0781 20.737 56.125 19.8985C55.1562 19.0443 54.6719 17.8802 54.6719 16.4063V9.20316ZM74.7812 21.1563H73.6484C71.7422 21.1563 70.2109 20.5599 69.0547 19.3672C67.9245 18.2006 67.3594 16.7787 67.3594 15.1016C67.3594 13.3828 67.9479 11.9479 69.125 10.7969C70.3177 9.63024 71.8255 9.04691 73.6484 9.04691C75.4766 9.04691 76.9844 9.63024 78.1719 10.7969L76.2031 12.5391C75.5781 11.9297 74.7266 11.625 73.6484 11.625C72.5651 11.625 71.7135 11.9297 71.0938 12.5391C70.4271 13.1953 70.0938 14.0495 70.0938 15.1016C70.0938 16.1537 70.4271 17.0078 71.0938 17.6641C71.7135 18.2735 72.5651 18.5782 73.6484 18.5782H74.7812C75.6146 18.5782 76.0312 18.1615 76.0312 17.3282V16.3594H73.8594V13.7813H78.7656V17.3282C78.7656 19.8802 77.4375 21.1563 74.7812 21.1563ZM88.5312 21.1563H87.3984C85.4922 21.1563 83.9609 20.5599 82.8047 19.3672C81.6745 18.2006 81.1094 16.7787 81.1094 15.1016C81.1094 13.3828 81.6979 11.9479 82.875 10.7969C84.0677 9.63024 85.5755 9.04691 87.3984 9.04691C89.2266 9.04691 90.7344 9.63024 91.9219 10.7969L89.9531 12.5391C89.3281 11.9297 88.4766 11.625 87.3984 11.625C86.3151 11.625 85.4635 11.9297 84.8438 12.5391C84.1771 13.1953 83.8438 14.0495 83.8438 15.1016C83.8438 16.1537 84.1771 17.0078 84.8438 17.6641C85.4635 18.2735 86.3151 18.5782 87.3984 18.5782H88.5312C89.3646 18.5782 89.7812 18.1615 89.7812 17.3282V16.3594H87.6094V13.7813H92.5156V17.3282C92.5156 19.8802 91.1875 21.1563 88.5312 21.1563ZM95.6406 21V9.20316H98.375V18.4219H102.891V21H95.6406ZM104.609 21V13.0313C104.609 10.4792 105.938 9.20316 108.594 9.20316H111.531V11.7813H108.594C107.76 11.7813 107.344 12.1979 107.344 13.0313V18.4219H112.641V21H104.609ZM108.516 13.7813H111.531V16.3594H108.516V13.7813ZM44.5625 37V33.6719C44.5625 31.1198 45.8906 29.8438 48.5469 29.8438H50.9766V32.4219H48.5469C47.7135 32.4219 47.2969 32.8386 47.2969 33.6719V37H44.5625ZM44.5625 25.2032H47.2969V29.375H44.5625V25.2032ZM52.1484 25.2032H54.8828V37H52.1484V25.2032ZM58.0156 37V25.2032H60.75V37H58.0156ZM67.7656 37L62.3516 25.2032H65.1406L69.5156 34.5157C71.4323 32.2813 72.3906 30.4922 72.3906 29.1485C72.3906 27.6224 71.4661 26.3073 69.6172 25.2032C69.6172 25.2032 70.7292 25.2032 72.9531 25.2032C74.401 26.0782 75.125 27.3933 75.125 29.1485C75.125 31.3933 73.6094 34.0104 70.5781 37H67.7656ZM77.4688 37V29.0313C77.4688 26.4792 78.7969 25.2032 81.4531 25.2032H84.3906V27.7813H81.4531C80.6198 27.7813 80.2031 28.1979 80.2031 29.0313V34.4219H85.5V37H77.4688ZM81.375 29.7813H84.3906V32.3594H81.375V29.7813Z" fill="white"/>
<path d="M112.294 29.8301L108.83 35.8301L105.366 29.8301L112.294 29.8301Z" fill="white" stroke="black"/>
<path d="M23.9978 42.1731C20.2705 41.715 17.6008 40.4576 15.8672 38.3506C14.2507 36.3861 13.4682 33.6485 13.6525 30.7036L8.05529 29.3161L6.77488 24.6931C5.68184 25.1755 4.67719 25.3006 3.93023 25.3006C3.40861 25.3006 2.90441 25.2415 2.43196 25.1251L2.3666 25.1089L0 24.4684L0.445061 22.0059C0.557104 21.4171 1.59786 16.2843 4.25453 13.6276C4.65415 13.228 5.08241 12.8887 5.52809 12.6192C6.57258 11.9886 7.68057 11.6562 8.73377 11.6562C9.18382 11.6562 9.61518 11.716 10.0154 11.833C11.3475 12.2227 12.232 13.0418 12.8128 13.8759L14.471 0L17.4258 0.83161C20.4853 1.69185 22.5587 3.1148 23.4208 4.94671C23.9076 5.98125 24.2885 7.66376 23.3392 9.80815L23.3237 9.843L19.5982 17.0928L20.1018 17.2279L20.2226 17.6779L34.3108 11.6257L35.0695 14.6017C35.9696 18.1348 35.5762 20.7753 33.8993 22.4516C32.9967 23.3542 31.8035 23.8746 30.2504 24.0414L30.1845 24.047L28.6121 24.136C28.9657 24.3707 29.2975 24.6309 29.6074 24.9147C32.2604 27.3479 33.3242 31.3192 32.8611 37.0565C32.5542 39.9795 30.9177 41.8955 30.2287 42.5852C29.1095 43.7037 28.0021 44.1388 27.7911 44.2148L22.8207 46L23.9966 42.1725L23.9978 42.1731Z" fill="white"/>
<path d="M19.3417 19.4949L19.0236 18.3073L17.676 17.9463L22.1316 9.27473C22.8792 7.58599 22.5953 6.29562 22.2262 5.51007C21.5203 4.01056 19.6554 2.83162 17.0685 2.10396L15.5995 1.69064L13.7819 16.9018L12.5587 16.5625C12.5587 16.5625 12.0938 13.8181 9.64499 13.101C8.87189 12.8751 7.63817 12.8894 6.21211 13.7502C5.85793 13.9637 5.5137 14.237 5.18878 14.5619C2.76429 16.9864 1.78577 22.0284 1.74531 22.2419L1.51562 23.5111L2.71138 23.8348C2.82529 23.8572 5.1589 24.5562 7.58713 22.6776L9.12212 28.22L15.0866 29.699C14.6154 32.8499 15.3555 35.6503 16.8873 37.5121C19.1375 40.2472 22.9999 40.8467 25.7394 41.0029L24.8598 43.8656L27.3441 42.973C27.4182 42.9462 28.3475 42.5995 29.2949 41.6521C30.1819 40.7651 31.3173 39.1187 31.5451 36.9513C31.9733 31.6473 31.0477 28.0283 28.7154 25.8889C26.8517 24.179 23.9056 23.4993 20.5592 24.0395L20.3563 23.2826L30.1097 22.7286C31.2955 22.601 32.2566 22.2276 32.9662 21.5186C34.3076 20.1772 34.5497 17.9108 33.7903 14.9292L33.4131 13.4502L19.3417 19.4956V19.4949Z" fill="black"/>
<path d="M24.6053 44.132L25.5203 41.1542C21.3635 40.8846 18.4964 39.7262 16.7604 37.6161C15.16 35.6715 14.4865 32.8374 14.9023 29.8228L8.98955 28.3563L7.49315 22.9533C5.35562 24.4927 3.29651 24.1485 2.70268 24.0009L1.32642 23.6293L1.58287 22.2107C1.62395 21.9935 2.61367 16.9018 5.07177 14.4437C5.40604 14.1094 5.76084 13.828 6.12623 13.6077C7.84796 12.5682 9.19248 12.7954 9.69107 12.941C11.9332 13.5971 12.5805 15.9077 12.6994 16.4287L13.6406 16.6895L15.4582 1.47775L17.1127 1.94335C19.8011 2.69965 21.6697 3.94084 22.375 5.43786C22.7597 6.25391 23.0553 7.59345 22.2822 9.33883L17.9163 17.8373L19.1581 18.1703L19.4513 19.2659L33.5252 13.2199L33.9497 14.8856C34.7421 17.9948 34.4501 20.2649 33.0826 21.6325C32.3736 22.3415 31.4069 22.7529 30.1278 22.8905L20.5686 23.4333L20.6806 23.8509C23.9903 23.3505 26.9526 24.0445 28.8274 25.7644C31.2003 27.9411 32.1433 31.6037 31.7101 36.9619C31.4449 39.4909 30.0151 41.1641 29.4126 41.7667C28.4477 42.7321 27.5053 43.0888 27.4008 43.1261L24.6053 44.1301V44.132ZM9.25597 28.0824L15.2721 29.5745L15.2497 29.7232C14.804 32.7017 15.447 35.5022 17.0143 37.4069C18.718 39.4772 21.5751 40.5995 25.7481 40.8379L25.9585 40.8498L25.1138 43.5979L27.2881 42.8167C27.3267 42.8031 28.2479 42.4644 29.1779 41.5345C29.7555 40.9568 31.1268 39.3527 31.3802 36.9332C31.8041 31.6871 30.8959 28.1129 28.6027 26.0096C26.7752 24.3327 23.8515 23.6748 20.5848 24.202L20.4373 24.2257L20.1435 23.1289L30.0998 22.5637C31.293 22.4355 32.195 22.0551 32.8486 21.4015C34.1283 20.1224 34.3904 17.9581 33.6291 14.9696L33.2998 13.678L19.2303 19.7221L18.8873 18.4417L17.4339 18.0521L21.9835 9.19816C22.7018 7.57477 22.4304 6.33358 22.0756 5.57978C21.412 4.17053 19.6175 2.9922 17.0224 2.26206L15.7389 1.90103L13.9213 17.1115L12.4119 16.6926L12.3944 16.5893C12.3894 16.5631 11.9151 13.937 9.59646 13.2585C9.13957 13.1247 7.90398 12.9192 6.29491 13.8903C5.95256 14.0969 5.61892 14.3621 5.30333 14.6771C2.91619 17.0642 1.94577 22.0595 1.90531 22.2705L1.70301 23.3891L2.75248 23.6729C3.35502 23.8211 5.39483 24.1609 7.48382 22.5444L7.67865 22.3937L9.25348 28.0799L9.25597 28.0824Z" fill="#F9C214"/>
<path d="M19.2273 24.5493L17.8348 19.3548L12.6404 17.963L8.90186 21.7009L9.52307 21.8932L10.0715 26.3725L10.2289 26.9607L11.4073 27.2763L11.9077 26.8325L15.0611 28.1608L14.9983 28.2386L15.424 28.3525L19.2273 24.5493Z" fill="#F9C214"/>
<path d="M8.90189 21.7009L8.83716 21.7657L10.0715 26.3725L9.52311 21.8933L8.90189 21.7009Z" fill="white"/>
<path d="M11.9078 26.8325L11.4073 27.2763L14.9983 28.2387L15.0612 28.1609L11.9078 26.8325Z" fill="white"/>
<path d="M15.1346 27.3224L9.86792 22.0551L17.1196 20.0701L15.1346 27.3218V27.3224ZM11.8218 22.5736L14.6161 25.3678L15.6693 21.5198L11.8212 22.573L11.8218 22.5736Z" fill="black"/>
<path d="M14.9342 28.4864L14.5028 26.9066L9.63892 27.5508L10.3417 22.2474L11.3482 22.3813L10.8197 26.37L15.2486 25.7836L15.914 28.2187L14.9342 28.4864Z" fill="black"/>
<path d="M11.1432 22.9222L8.70312 22.2555L8.97079 21.2758L10.5462 21.7065L12.4211 17.1613L16.3476 20.1236L17.4761 18.9957L18.1938 19.7134L16.441 21.4669L12.8587 18.7641L11.1432 22.9222Z" fill="black"/>
<path d="M15.0692 26.8144L14.6814 25.8758L18.4261 24.3308L15.9892 21.1009L16.7996 20.4896L20.0284 24.7684L15.0692 26.8144Z" fill="black"/>
<path d="M32.8268 16.0178C32.7733 15.7333 32.7123 15.4408 32.6332 15.1314L31.9684 15.4072L19.7688 20.4703L20.0477 21.5117L20.118 21.7756L30.6314 19.0473C32.0058 18.7112 32.7104 17.6729 32.8262 16.0178H32.8268Z" fill="#562582"/>
<path d="M18.1647 3.69994C17.7626 3.53873 17.32 3.38871 16.8333 3.25177L15.025 17.0624L16.1903 17.3748L16.3235 17.4103L19.2024 8.05594C19.6891 6.38587 19.4097 4.97412 18.1641 3.69932L18.1647 3.69994Z" fill="#562582"/>
<path d="M20.8513 8.56627C20.883 8.49469 20.906 8.42435 20.934 8.35339C21.6922 6.40508 20.8768 4.78543 18.1653 3.69986C19.4109 4.97466 19.6904 6.38641 19.2036 8.05648L16.3247 17.4108L16.682 17.5067L20.8513 8.5669V8.56627Z" fill="#3A2460"/>
<path d="M30.0393 21.2683C32.3798 21.0169 33.4504 19.3387 32.8267 16.0179C32.7103 17.673 32.0057 18.7112 30.6319 19.0474L20.1185 21.7756L20.2125 22.1267L30.0393 21.2677V21.2683Z" fill="#3A2460"/>
<path d="M19.9045 21.1718L27.9729 19.3144L20.0048 21.5471L19.9045 21.1718Z" fill="black"/>
<path d="M15.6201 17.3586L17.7359 10.603L16.0073 17.4625L15.6201 17.3586Z" fill="black"/>
<path d="M19.7688 20.4709L29.961 16.2407L19.8267 20.6875L19.7688 20.4709Z" fill="white"/>
<path d="M15.0256 17.0623L16.5444 5.46021L15.2759 17.1295L15.0256 17.0623Z" fill="white"/>
<path d="M16.4212 29.5321L16.4175 29.5358C16.1037 31.3733 16.4007 33.1019 16.7362 34.3195C16.9204 34.2989 17.1072 34.269 17.297 34.2255C17.104 33.7069 16.2239 31.5476 16.4212 29.5321Z" fill="white"/>
<path d="M19.1899 26.764L18.4716 27.4823L16.4212 29.5327C16.2239 31.5482 17.1047 33.7076 17.297 34.2261H17.2982C18.9191 33.8551 20.9502 32.4608 22.4367 30.9812C23.071 30.3438 23.6449 29.6491 24.1254 28.9358C22.6147 27.7313 20.9533 26.9787 19.1893 26.7646L19.1899 26.764Z" fill="#54267E"/>
<path d="M18.0888 35.9179C17.8653 35.9708 17.6475 36.007 17.4346 36.0275C18.2631 37.339 19.4837 38.1756 20.8426 38.7103C21.1563 38.6748 21.4768 38.6113 21.803 38.5161C19.6456 37.9571 18.4598 36.4651 18.0882 35.9179H18.0888Z" fill="white"/>
<path d="M24.1261 28.9352C24.8861 27.8066 25.2832 26.7528 25.4158 25.6828C24.2132 25.3236 22.3664 25.1294 20.5226 25.4307L19.1893 26.764C20.9403 26.9564 22.6807 27.75 24.1255 28.9352H24.1261Z" fill="#312355"/>
<path d="M25.5862 30.0643C25.0515 30.8274 24.4197 31.5775 23.7288 32.2715C22.0512 33.9422 19.8135 35.509 18.0886 35.9173C18.4602 36.4644 19.646 37.9565 21.8035 38.5155C23.3883 38.0523 25.3192 36.6916 26.7377 35.2799C27.2805 34.734 27.7797 34.147 28.2167 33.5407C27.5849 32.1421 26.6363 30.993 25.5868 30.0637L25.5862 30.0643Z" fill="#54267E"/>
<path d="M28.7392 38.3785C28.6221 39.6203 27.976 40.602 26.8749 41.6757C26.8749 41.6757 29.5757 40.7053 29.961 37.0409C30.0314 36.1707 30.3283 34.7826 30.2679 33.537C29.9106 34.2404 29.4276 34.9537 28.863 35.6316C29.0012 36.4091 28.8157 37.4766 28.7398 38.3779L28.7392 38.3785Z" fill="#312355"/>
<path d="M27.1057 26.5524C26.9576 27.6946 26.4739 28.797 25.5863 30.0643C26.6358 30.9936 27.5844 32.1421 28.2162 33.5414C28.9669 32.5012 29.4593 31.476 29.7251 30.4372C29.2924 28.8667 28.5362 27.3398 27.1064 26.5524H27.1057Z" fill="#312355"/>
<path d="M28.8624 35.6322C28.5966 35.9509 28.3134 36.2622 28.0171 36.5603C27.0616 37.5121 25.7401 38.559 24.6807 39.0832C26.0644 39.4915 27.4836 39.6944 27.4836 39.6944L26.8748 41.6757C27.976 40.602 28.6221 39.6203 28.7391 38.3785C28.8157 37.4772 29.0006 36.4097 28.8624 35.6322Z" fill="#54267E"/>
<path d="M23.8041 39.4523C25.1405 39.6409 26.4383 39.6733 27.4828 39.6944C27.4828 39.6944 26.0636 39.4909 24.6799 39.0832C24.3848 39.2294 24.091 39.3552 23.8041 39.4523Z" fill="white"/>
<path d="M7.37672 14.5625C7.21488 14.6328 7.04868 14.7138 6.87439 14.8146C4.12435 16.4075 3.00952 22.4541 3.00952 22.4541C3.10476 22.2954 4.32105 18.0825 5.58029 16.3185C6.44116 15.1121 7.13769 14.6839 7.37672 14.5631V14.5625Z" fill="white"/>
<path d="M7.37672 14.5625C7.13769 14.6839 6.44116 15.1121 5.58029 16.3178C4.32105 18.0819 3.10476 22.2947 3.00952 22.4535C3.00952 22.4535 3.07301 22.4771 3.1863 22.5026C7.08105 22.7049 8.1355 18.527 8.1355 18.527L7.99047 20.6383L11.3686 17.2602C11.3686 17.2602 10.4984 13.2043 7.37672 14.5619V14.5625Z" fill="#562582"/>
<path d="M3.31891 22.5282L3.19629 22.5051C3.23177 22.5132 3.2741 22.5207 3.31891 22.5282Z" fill="#562582"/>
<path d="M3.18335 22.5033L3.19781 22.506C3.19368 22.5054 3.19092 22.5047 3.18679 22.5033C3.18541 22.5033 3.18473 22.5033 3.18335 22.5033Z" fill="#3A2460"/>
<path d="M3.1864 22.5033C3.19014 22.5039 3.19263 22.5045 3.19636 22.5057L3.31899 22.5288C3.98689 22.6396 5.70053 22.6508 7.99057 20.639L8.1356 18.5276C8.1356 18.5276 7.08115 22.7056 3.1864 22.5033Z" fill="#312355"/>
</svg>
